<svg xmlns="http://www.w3.org/2000/svg" width="33" height="33"><g fill="none" fill-rule="evenodd" transform="translate(1 1)"><circle cx="15.5" cy="15.5" r="15.5" stroke="#FFF"/><path fill="#FFF" d="M23 11.301a5.881 5.881 0 01-1.65.438 2.808 2.808 0 001.263-1.536 5.91 5.91 0 01-1.825.675A2.91 2.91 0 0018.692 10c-1.586 0-2.872 1.244-2.872 2.777 0 .218.026.43.075.633a8.248 8.248 0 01-5.92-2.902c-.247.41-.388.887-.388 1.396 0 .964.507 1.814 1.277 2.312a2.946 2.946 0 01-1.3-.349v.035c0 1.345.99 2.468 2.303 2.724a2.98 2.98 0 01-1.297.046c.365 1.104 1.425 1.907 2.682 1.929a5.887 5.887 0 01-3.567 1.187c-.232 0-.46-.013-.685-.038A8.318 8.318 0 0013.402 21c5.283 0 8.171-4.233 8.171-7.904l-.01-.36A5.636 5.636 0 0023 11.302z"/></g></svg>