<svg xmlns="http://www.w3.org/2000/svg" width="33" height="33"><g fill="none" fill-rule="evenodd" transform="translate(1 1)"><g fill="#FFF"><path fill-rule="nonzero" d="M19.389 10.01H11.61c-.888 0-1.611.722-1.611 1.609v7.762c0 .887.723 1.608 1.611 1.608h7.778c.888 0 1.611-.721 1.611-1.608V11.62c0-.887-.723-1.608-1.611-1.608zm-3.868 8.363a2.9 2.9 0 01-2.9-2.894 2.9 2.9 0 015.8 0 2.9 2.9 0 01-2.9 2.894zm3.223-5.146a.967.967 0 01-.967-.965.967.967 0 011.934 0 .967.967 0 01-.967.965z"/><path d="M18.744 11.94a.322.322 0 100 .645.322.322 0 000-.644zm-3.223 1.287a2.256 2.256 0 00-2.255 2.252 2.256 2.256 0 004.511 0 2.256 2.256 0 00-2.256-2.252z"/></g><circle cx="15.5" cy="15.5" r="15.5" stroke="#FFF"/></g></svg>